<svg xmlns="http://www.w3.org/2000/svg" xmlns:xlink="http://www.w3.org/1999/xlink" contentStyleType="text/css" height="871px" preserveAspectRatio="none" style="width:767px;height:871px;background:#FFFFFF;" version="1.1" viewBox="0 0 767 871" width="767px" zoomAndPan="magnify"><defs/><g><rect fill="none" height="387.125" style="stroke:#000000;stroke-width:1.5;" width="439.2095" x="10" y="98.2969"/><rect fill="none" height="274.1953" style="stroke:#000000;stroke-width:1.5;" width="751.0703" x="10" y="499.4219"/><line style="stroke:#181818;stroke-width:0.5;stroke-dasharray:5.0,5.0;" x1="38" x2="38" y1="81.2969" y2="790.6172"/><line style="stroke:#181818;stroke-width:0.5;stroke-dasharray:5.0,5.0;" x1="159.1421" x2="159.1421" y1="81.2969" y2="790.6172"/><line style="stroke:#181818;stroke-width:0.5;stroke-dasharray:5.0,5.0;" x1="288.9878" x2="288.9878" y1="81.2969" y2="790.6172"/><line style="stroke:#181818;stroke-width:0.5;stroke-dasharray:5.0,5.0;" x1="397.0981" x2="397.0981" y1="81.2969" y2="790.6172"/><line style="stroke:#181818;stroke-width:0.5;stroke-dasharray:5.0,5.0;" x1="505.876" x2="505.876" y1="81.2969" y2="790.6172"/><text fill="#000000" font-family="sans-serif" font-size="14" lengthAdjust="spacing" textLength="31.9102" x="20" y="77.9951">User</text><ellipse cx="38.9551" cy="13.5" fill="#E2E2F0" rx="8" ry="8" style="stroke:#181818;stroke-width:0.5;"/><path d="M38.9551,21.5 L38.9551,48.5 M25.9551,29.5 L51.9551,29.5 M38.9551,48.5 L25.9551,63.5 M38.9551,48.5 L51.9551,63.5 " fill="none" style="stroke:#181818;stroke-width:0.5;"/><text fill="#000000" font-family="sans-serif" font-size="14" lengthAdjust="spacing" textLength="31.9102" x="20" y="802.6123">User</text><ellipse cx="38.9551" cy="814.4141" fill="#E2E2F0" rx="8" ry="8" style="stroke:#181818;stroke-width:0.5;"/><path d="M38.9551,822.4141 L38.9551,849.4141 M25.9551,830.4141 L51.9551,830.4141 M38.9551,849.4141 L25.9551,864.4141 M38.9551,849.4141 L51.9551,864.4141 " fill="none" style="stroke:#181818;stroke-width:0.5;"/><rect fill="#E2E2F0" height="30.2969" rx="2.5" ry="2.5" style="stroke:#181818;stroke-width:0.5;" width="71.0391" x="124.1421" y="50"/><text fill="#000000" font-family="sans-serif" font-size="14" lengthAdjust="spacing" textLength="57.0391" x="131.1421" y="69.9951">Browser</text><rect fill="#E2E2F0" height="30.2969" rx="2.5" ry="2.5" style="stroke:#181818;stroke-width:0.5;" width="71.0391" x="124.1421" y="789.6172"/><text fill="#000000" font-family="sans-serif" font-size="14" lengthAdjust="spacing" textLength="57.0391" x="131.1421" y="809.6123">Browser</text><rect fill="#E2E2F0" height="30.2969" rx="2.5" ry="2.5" style="stroke:#181818;stroke-width:0.5;" width="36.1484" x="270.9878" y="50"/><text fill="#000000" font-family="sans-serif" font-size="14" lengthAdjust="spacing" textLength="22.1484" x="277.9878" y="69.9951">API</text><rect fill="#E2E2F0" height="30.2969" rx="2.5" ry="2.5" style="stroke:#181818;stroke-width:0.5;" width="36.1484" x="270.9878" y="789.6172"/><text fill="#000000" font-family="sans-serif" font-size="14" lengthAdjust="spacing" textLength="22.1484" x="277.9878" y="809.6123">API</text><rect fill="#E2E2F0" height="30.2969" rx="2.5" ry="2.5" style="stroke:#181818;stroke-width:0.5;" width="83.1113" x="356.0981" y="50"/><text fill="#000000" font-family="sans-serif" font-size="14" lengthAdjust="spacing" textLength="69.1113" x="363.0981" y="69.9951">App Store</text><rect fill="#E2E2F0" height="30.2969" rx="2.5" ry="2.5" style="stroke:#181818;stroke-width:0.5;" width="83.1113" x="356.0981" y="789.6172"/><text fill="#000000" font-family="sans-serif" font-size="14" lengthAdjust="spacing" textLength="69.1113" x="363.0981" y="809.6123">App Store</text><rect fill="#E2E2F0" height="30.2969" rx="2.5" ry="2.5" style="stroke:#181818;stroke-width:0.5;" width="41.3506" x="485.876" y="50"/><text fill="#000000" font-family="sans-serif" font-size="14" lengthAdjust="spacing" textLength="27.3506" x="492.876" y="69.9951">App</text><rect fill="#E2E2F0" height="30.2969" rx="2.5" ry="2.5" style="stroke:#181818;stroke-width:0.5;" width="41.3506" x="485.876" y="789.6172"/><text fill="#000000" font-family="sans-serif" font-size="14" lengthAdjust="spacing" textLength="27.3506" x="492.876" y="809.6123">App</text><path d="M10,98.2969 L74.4429,98.2969 L74.4429,105.4297 L64.4429,115.4297 L10,115.4297 L10,98.2969 " fill="#EEEEEE" style="stroke:#000000;stroke-width:1.5;"/><rect fill="none" height="387.125" style="stroke:#000000;stroke-width:1.5;" width="439.2095" x="10" y="98.2969"/><text fill="#000000" font-family="sans-serif" font-size="13" font-weight="bold" lengthAdjust="spacing" textLength="19.4429" x="25" y="111.3638">alt</text><text fill="#000000" font-family="sans-serif" font-size="11" font-weight="bold" lengthAdjust="spacing" textLength="92.3989" x="89.4429" y="110.5073">[get deep-link]</text><path d="M43,120.4297 L43,160.4297 L250,160.4297 L250,130.4297 L240,120.4297 L43,120.4297 " fill="#FEFFDD" style="stroke:#181818;stroke-width:0.5;"/><path d="M240,120.4297 L240,130.4297 L250,130.4297 L240,120.4297 " fill="#FEFFDD" style="stroke:#181818;stroke-width:0.5;"/><text fill="#000000" font-family="sans-serif" font-size="13" lengthAdjust="spacing" textLength="186.894" x="49" y="137.4966">Gets not-targeted marketing</text><text fill="#000000" font-family="sans-serif" font-size="13" lengthAdjust="spacing" textLength="131.8789" x="49" y="152.6294">email with deep-link</text><polygon fill="#181818" points="147.6616,182.8281,157.6616,186.8281,147.6616,190.8281,151.6616,186.8281" style="stroke:#181818;stroke-width:1.0;"/><line style="stroke:#181818;stroke-width:1.0;" x1="38.9551" x2="153.6616" y1="186.8281" y2="186.8281"/><text fill="#000000" font-family="sans-serif" font-size="13" lengthAdjust="spacing" textLength="96.7065" x="45.9551" y="181.7622">User clicks link</text><path d="M164,199.8281 L164,269.8281 L314,269.8281 L314,209.8281 L304,199.8281 L164,199.8281 " fill="#FEFFDD" style="stroke:#181818;stroke-width:0.5;"/><path d="M304,199.8281 L304,209.8281 L314,209.8281 L304,199.8281 " fill="#FEFFDD" style="stroke:#181818;stroke-width:0.5;"/><text fill="#000000" font-family="sans-serif" font-size="13" lengthAdjust="spacing" textLength="129.2573" x="170" y="216.895">Since the app is not</text><text fill="#000000" font-family="sans-serif" font-size="13" lengthAdjust="spacing" textLength="124.7378" x="170" y="232.0278">installed iOS opens</text><text fill="#000000" font-family="sans-serif" font-size="13" lengthAdjust="spacing" textLength="101.8608" x="170" y="247.1606">safari to handle</text><text fill="#000000" font-family="sans-serif" font-size="13" lengthAdjust="spacing" textLength="75.1689" x="170" y="262.2935">the request</text><line style="stroke:#181818;stroke-width:1.0;" x1="159.6616" x2="201.6616" y1="296.4922" y2="296.4922"/><line style="stroke:#181818;stroke-width:1.0;" x1="201.6616" x2="201.6616" y1="296.4922" y2="309.4922"/><line style="stroke:#181818;stroke-width:1.0;" x1="160.6616" x2="201.6616" y1="309.4922" y2="309.4922"/><polygon fill="#181818" points="170.6616,305.4922,160.6616,309.4922,170.6616,313.4922,166.6616,309.4922" style="stroke:#181818;stroke-width:1.0;"/><text fill="#000000" font-family="sans-serif" font-size="13" lengthAdjust="spacing" textLength="115.4004" x="166.6616" y="291.4263">fingerprint device</text><polygon fill="#181818" points="277.062,334.625,287.062,338.625,277.062,342.625,281.062,338.625" style="stroke:#181818;stroke-width:1.0;"/><line style="stroke:#181818;stroke-width:1.0;" x1="159.6616" x2="283.062" y1="338.625" y2="338.625"/><text fill="#000000" font-family="sans-serif" font-size="13" lengthAdjust="spacing" textLength="96.2241" x="166.6616" y="333.5591">Save deep-link</text><path d="M164,351.625 L164,421.625 L366,421.625 L366,361.625 L356,351.625 L164,351.625 " fill="#FEFFDD" style="stroke:#181818;stroke-width:0.5;"/><path d="M356,351.625 L356,361.625 L366,361.625 L356,351.625 " fill="#FEFFDD" style="stroke:#181818;stroke-width:0.5;"/><text fill="#000000" font-family="sans-serif" font-size="13" lengthAdjust="spacing" textLength="181.4351" x="170" y="368.6919">We store into the database:</text><text fill="#000000" font-family="sans-serif" font-size="13" lengthAdjust="spacing" textLength="78.2095" x="170" y="383.8247">- deep-link (</text><text fill="#000000" font-family="sans-serif" font-size="13" font-weight="bold" lengthAdjust="spacing" textLength="15.1455" x="248.2095" y="383.8247">to</text><text fill="#000000" font-family="sans-serif" font-size="13" lengthAdjust="spacing" textLength="5.0718" x="263.355" y="383.8247">)</text><text fill="#000000" font-family="sans-serif" font-size="13" lengthAdjust="spacing" textLength="86.5947" x="170" y="398.9575">- fingerprint (</text><text fill="#000000" font-family="sans-serif" font-size="13" font-weight="bold" lengthAdjust="spacing" textLength="14.9614" x="256.5947" y="398.9575">fp</text><text fill="#000000" font-family="sans-serif" font-size="13" lengthAdjust="spacing" textLength="5.0718" x="271.5562" y="398.9575">)</text><text fill="#000000" font-family="sans-serif" font-size="13" lengthAdjust="spacing" textLength="156.6157" x="170" y="414.0903">for post-install retrieval.</text><polygon fill="#181818" points="385.6538,444.2891,395.6538,448.2891,385.6538,452.2891,389.6538,448.2891" style="stroke:#181818;stroke-width:1.0;"/><line style="stroke:#181818;stroke-width:1.0;" x1="159.6616" x2="391.6538" y1="448.2891" y2="448.2891"/><text fill="#000000" font-family="sans-serif" font-size="13" lengthAdjust="spacing" textLength="213.9922" x="166.6616" y="443.2231">Go to app store to download APP</text><polygon fill="#181818" points="49.9551,473.4219,39.9551,477.4219,49.9551,481.4219,45.9551,477.4219" style="stroke:#181818;stroke-width:1.0;"/><line style="stroke:#181818;stroke-width:1.0;" x1="43.9551" x2="396.6538" y1="477.4219" y2="477.4219"/><text fill="#000000" font-family="sans-serif" font-size="13" lengthAdjust="spacing" textLength="123.1572" x="55.9551" y="472.356">App is downloaded</text><path d="M10,499.4219 L74.4429,499.4219 L74.4429,506.5547 L64.4429,516.5547 L10,516.5547 L10,499.4219 " fill="#EEEEEE" style="stroke:#000000;stroke-width:1.5;"/><rect fill="none" height="274.1953" style="stroke:#000000;stroke-width:1.5;" width="751.0703" x="10" y="499.4219"/><text fill="#000000" font-family="sans-serif" font-size="13" font-weight="bold" lengthAdjust="spacing" textLength="19.4429" x="25" y="512.4888">alt</text><text fill="#000000" font-family="sans-serif" font-size="11" font-weight="bold" lengthAdjust="spacing" textLength="103.6621" x="89.4429" y="511.6323">[fetch deep-link]</text><polygon fill="#181818" points="494.5513,533.6875,504.5513,537.6875,494.5513,541.6875,498.5513,537.6875" style="stroke:#181818;stroke-width:1.0;"/><line style="stroke:#181818;stroke-width:1.0;" x1="38.9551" x2="500.5513" y1="537.6875" y2="537.6875"/><text fill="#000000" font-family="sans-serif" font-size="13" lengthAdjust="spacing" textLength="205.626" x="45.9551" y="532.6216">User launches app for first time</text><line style="stroke:#181818;stroke-width:1.0;" x1="506.5513" x2="548.5513" y1="566.8203" y2="566.8203"/><line style="stroke:#181818;stroke-width:1.0;" x1="548.5513" x2="548.5513" y1="566.8203" y2="579.8203"/><line style="stroke:#181818;stroke-width:1.0;" x1="507.5513" x2="548.5513" y1="579.8203" y2="579.8203"/><polygon fill="#181818" points="517.5513,575.8203,507.5513,579.8203,517.5513,583.8203,513.5513,579.8203" style="stroke:#181818;stroke-width:1.0;"/><text fill="#000000" font-family="sans-serif" font-size="13" lengthAdjust="spacing" textLength="118.3013" x="513.5513" y="561.7544">Fingerprint device</text><polygon fill="#181818" points="300.062,604.9531,290.062,608.9531,300.062,612.9531,296.062,608.9531" style="stroke:#181818;stroke-width:1.0;"/><line style="stroke:#181818;stroke-width:1.0;" x1="294.062" x2="505.5513" y1="608.9531" y2="608.9531"/><text fill="#000000" font-family="sans-serif" font-size="13" lengthAdjust="spacing" textLength="173.272" x="306.062" y="603.8872">App queries for deep-link (</text><text fill="#000000" font-family="sans-serif" font-size="13" font-weight="bold" lengthAdjust="spacing" textLength="15.1455" x="479.334" y="603.8872">to</text><text fill="#000000" font-family="sans-serif" font-size="13" lengthAdjust="spacing" textLength="5.0718" x="494.4795" y="603.8872">)</text><path d="M294,621.9531 L294,661.9531 L574,661.9531 L574,631.9531 L564,621.9531 L294,621.9531 " fill="#FEFFDD" style="stroke:#181818;stroke-width:0.5;"/><path d="M564,621.9531 L564,631.9531 L574,631.9531 L564,621.9531 " fill="#FEFFDD" style="stroke:#181818;stroke-width:0.5;"/><text fill="#000000" font-family="sans-serif" font-size="13" lengthAdjust="spacing" textLength="225.3481" x="300" y="639.02">App queries the API on first launch</text><text fill="#000000" font-family="sans-serif" font-size="13" lengthAdjust="spacing" textLength="68.7896" x="300" y="654.1528">using both</text><text fill="#000000" font-family="sans-serif" font-size="13" font-weight="bold" lengthAdjust="spacing" textLength="22.8008" x="372.9219" y="654.1528">mh</text><text fill="#000000" font-family="sans-serif" font-size="13" lengthAdjust="spacing" textLength="24.4575" x="399.855" y="654.1528">and</text><text fill="#000000" font-family="sans-serif" font-size="13" font-weight="bold" lengthAdjust="spacing" textLength="14.9614" x="428.4448" y="654.1528">fp</text><text fill="#000000" font-family="sans-serif" font-size="13" lengthAdjust="spacing" textLength="91.3936" x="447.5386" y="654.1528">for deep-link (</text><text fill="#000000" font-family="sans-serif" font-size="13" font-weight="bold" lengthAdjust="spacing" textLength="15.1455" x="538.9321" y="654.1528">to</text><text fill="#000000" font-family="sans-serif" font-size="13" lengthAdjust="spacing" textLength="5.0718" x="554.0776" y="654.1528">)</text><polygon fill="#181818" points="494.5513,684.3516,504.5513,688.3516,494.5513,692.3516,498.5513,688.3516" style="stroke:#181818;stroke-width:1.0;"/><line style="stroke:#181818;stroke-width:1.0;" x1="289.062" x2="500.5513" y1="688.3516" y2="688.3516"/><text fill="#000000" font-family="sans-serif" font-size="13" lengthAdjust="spacing" textLength="117.4697" x="296.062" y="683.2856">Return deep-link (</text><text fill="#000000" font-family="sans-serif" font-size="13" font-weight="bold" lengthAdjust="spacing" textLength="15.1455" x="413.5317" y="683.2856">to</text><text fill="#000000" font-family="sans-serif" font-size="13" lengthAdjust="spacing" textLength="5.0718" x="428.6772" y="683.2856">)</text><line style="stroke:#181818;stroke-width:1.0;" x1="506.5513" x2="548.5513" y1="702.3516" y2="702.3516"/><line style="stroke:#181818;stroke-width:1.0;" x1="548.5513" x2="548.5513" y1="702.3516" y2="715.3516"/><line style="stroke:#181818;stroke-width:1.0;" x1="507.5513" x2="548.5513" y1="715.3516" y2="715.3516"/><polygon fill="#181818" points="517.5513,711.3516,507.5513,715.3516,517.5513,719.3516,513.5513,715.3516" style="stroke:#181818;stroke-width:1.0;"/><path d="M511,728.3516 L511,768.3516 L751,768.3516 L751,738.3516 L741,728.3516 L511,728.3516 " fill="#FEFFDD" style="stroke:#181818;stroke-width:0.5;"/><path d="M741,728.3516 L741,738.3516 L751,738.3516 L741,728.3516 " fill="#FEFFDD" style="stroke:#181818;stroke-width:0.5;"/><text fill="#000000" font-family="sans-serif" font-size="13" lengthAdjust="spacing" textLength="118.2505" x="517" y="745.4185">If deep-link found,</text><text fill="#000000" font-family="sans-serif" font-size="13" lengthAdjust="spacing" textLength="219.0703" x="517" y="760.5513">corresponding screen is rendered</text><!--SRC=[TLBDRjim3BxhAOYUDcFU0-Gm83kioAd1Wc9dLg9Z8OgaKKpo-gEiU77Qr2UR9ldz4QqaXklpMeXDHXPlVSOe03yvNJuKrzlDVU5fdJFiT14zlUlCsHWC0diIS4Iv3puUJ4n2m7u_2gIXeJwJ5D1wByZQJ0wEo0SI7_U6ZkW3NBoCYnqKNUqdO-eyz3zchh2QDe8DtXuAF02SHUryj0Go4g3oznE-yR48Xg04_CiEKgPOJC41sOCa636wGARECFqzKP45aPd0ZSiA1XL0dDd7Qi3Ps_i-jLBvxl1Cdzepi_r3KAh5eAlInDgXu1iMMfd-DWrVkavIrttLuX9SoqEkvK7ppgb8VrMgGeGzdJ5yVwnbaQvoVKxLXsfOOwCVBbrYIEXKpTQOPRjElxP8ritXkPLSnJBjE0OIkuns3bHdhba6F4KxKfbmgu31Sn4GVoHJDy_DlpwwFV_URXe93KtLbcdB0zFklQ-NlXoghjV8KhmoQCJCgIWml2MzqAuxZbq7UYVG7FyCwR_NTU4iu3V9YUEZzflCznoriXaM8qCwHVSDZ4tCL7AAhf8hbebYpO0LcRWbq1Zeopy0]--></g></svg>