<svg xmlns="http://www.w3.org/2000/svg" xmlns:xlink="http://www.w3.org/1999/xlink" contentStyleType="text/css" height="802px" preserveAspectRatio="none" style="width:758px;height:802px;background:#FFFFFF;" version="1.1" viewBox="0 0 758 802" width="758px" zoomAndPan="magnify"><defs/><g><rect fill="none" height="360.125" style="stroke:#000000;stroke-width:1.5;" width="439.2095" x="10" y="98.2969"/><rect fill="none" height="232.0625" style="stroke:#000000;stroke-width:1.5;" width="742.0703" x="10" y="472.4219"/><line style="stroke:#181818;stroke-width:0.5;stroke-dasharray:5.0,5.0;" x1="38" x2="38" y1="81.2969" y2="721.4844"/><line style="stroke:#181818;stroke-width:0.5;stroke-dasharray:5.0,5.0;" x1="159.1421" x2="159.1421" y1="81.2969" y2="721.4844"/><line style="stroke:#181818;stroke-width:0.5;stroke-dasharray:5.0,5.0;" x1="279.8115" x2="279.8115" y1="81.2969" y2="721.4844"/><line style="stroke:#181818;stroke-width:0.5;stroke-dasharray:5.0,5.0;" x1="397.0981" x2="397.0981" y1="81.2969" y2="721.4844"/><line style="stroke:#181818;stroke-width:0.5;stroke-dasharray:5.0,5.0;" x1="496.6997" x2="496.6997" y1="81.2969" y2="721.4844"/><text fill="#000000" font-family="sans-serif" font-size="14" lengthAdjust="spacing" textLength="31.9102" x="20" y="77.9951">User</text><ellipse cx="38.9551" cy="13.5" fill="#E2E2F0" rx="8" ry="8" style="stroke:#181818;stroke-width:0.5;"/><path d="M38.9551,21.5 L38.9551,48.5 M25.9551,29.5 L51.9551,29.5 M38.9551,48.5 L25.9551,63.5 M38.9551,48.5 L51.9551,63.5 " fill="none" style="stroke:#181818;stroke-width:0.5;"/><text fill="#000000" font-family="sans-serif" font-size="14" lengthAdjust="spacing" textLength="31.9102" x="20" y="733.4795">User</text><ellipse cx="38.9551" cy="745.2813" fill="#E2E2F0" rx="8" ry="8" style="stroke:#181818;stroke-width:0.5;"/><path d="M38.9551,753.2813 L38.9551,780.2813 M25.9551,761.2813 L51.9551,761.2813 M38.9551,780.2813 L25.9551,795.2813 M38.9551,780.2813 L51.9551,795.2813 " fill="none" style="stroke:#181818;stroke-width:0.5;"/><rect fill="#E2E2F0" height="30.2969" rx="2.5" ry="2.5" style="stroke:#181818;stroke-width:0.5;" width="71.0391" x="124.1421" y="50"/><text fill="#000000" font-family="sans-serif" font-size="14" lengthAdjust="spacing" textLength="57.0391" x="131.1421" y="69.9951">Browser</text><rect fill="#E2E2F0" height="30.2969" rx="2.5" ry="2.5" style="stroke:#181818;stroke-width:0.5;" width="71.0391" x="124.1421" y="720.4844"/><text fill="#000000" font-family="sans-serif" font-size="14" lengthAdjust="spacing" textLength="57.0391" x="131.1421" y="740.4795">Browser</text><rect fill="#E2E2F0" height="30.2969" rx="2.5" ry="2.5" style="stroke:#181818;stroke-width:0.5;" width="36.1484" x="261.8115" y="50"/><text fill="#000000" font-family="sans-serif" font-size="14" lengthAdjust="spacing" textLength="22.1484" x="268.8115" y="69.9951">API</text><rect fill="#E2E2F0" height="30.2969" rx="2.5" ry="2.5" style="stroke:#181818;stroke-width:0.5;" width="36.1484" x="261.8115" y="720.4844"/><text fill="#000000" font-family="sans-serif" font-size="14" lengthAdjust="spacing" textLength="22.1484" x="268.8115" y="740.4795">API</text><rect fill="#E2E2F0" height="30.2969" rx="2.5" ry="2.5" style="stroke:#181818;stroke-width:0.5;" width="83.1113" x="356.0981" y="50"/><text fill="#000000" font-family="sans-serif" font-size="14" lengthAdjust="spacing" textLength="69.1113" x="363.0981" y="69.9951">App Store</text><rect fill="#E2E2F0" height="30.2969" rx="2.5" ry="2.5" style="stroke:#181818;stroke-width:0.5;" width="83.1113" x="356.0981" y="720.4844"/><text fill="#000000" font-family="sans-serif" font-size="14" lengthAdjust="spacing" textLength="69.1113" x="363.0981" y="740.4795">App Store</text><rect fill="#E2E2F0" height="30.2969" rx="2.5" ry="2.5" style="stroke:#181818;stroke-width:0.5;" width="41.3506" x="476.6997" y="50"/><text fill="#000000" font-family="sans-serif" font-size="14" lengthAdjust="spacing" textLength="27.3506" x="483.6997" y="69.9951">App</text><rect fill="#E2E2F0" height="30.2969" rx="2.5" ry="2.5" style="stroke:#181818;stroke-width:0.5;" width="41.3506" x="476.6997" y="720.4844"/><text fill="#000000" font-family="sans-serif" font-size="14" lengthAdjust="spacing" textLength="27.3506" x="483.6997" y="740.4795">App</text><path d="M10,98.2969 L74.4429,98.2969 L74.4429,105.4297 L64.4429,115.4297 L10,115.4297 L10,98.2969 " fill="#EEEEEE" style="stroke:#000000;stroke-width:1.5;"/><rect fill="none" height="360.125" style="stroke:#000000;stroke-width:1.5;" width="439.2095" x="10" y="98.2969"/><text fill="#000000" font-family="sans-serif" font-size="13" font-weight="bold" lengthAdjust="spacing" textLength="19.4429" x="25" y="111.3638">alt</text><text fill="#000000" font-family="sans-serif" font-size="11" font-weight="bold" lengthAdjust="spacing" textLength="92.3989" x="89.4429" y="110.5073">[get deep-link]</text><path d="M43,120.4297 L43,160.4297 L266,160.4297 L266,130.4297 L256,120.4297 L43,120.4297 " fill="#FEFFDD" style="stroke:#181818;stroke-width:0.5;"/><path d="M256,120.4297 L256,130.4297 L266,130.4297 L256,120.4297 " fill="#FEFFDD" style="stroke:#181818;stroke-width:0.5;"/><text fill="#000000" font-family="sans-serif" font-size="13" lengthAdjust="spacing" textLength="145.8628" x="49" y="137.4966">Member gets targeted</text><text fill="#000000" font-family="sans-serif" font-size="13" lengthAdjust="spacing" textLength="202.7124" x="49" y="152.6294">marketing email with deep-link</text><polygon fill="#181818" points="147.6616,182.8281,157.6616,186.8281,147.6616,190.8281,151.6616,186.8281" style="stroke:#181818;stroke-width:1.0;"/><line style="stroke:#181818;stroke-width:1.0;" x1="38.9551" x2="153.6616" y1="186.8281" y2="186.8281"/><text fill="#000000" font-family="sans-serif" font-size="13" lengthAdjust="spacing" textLength="96.7065" x="45.9551" y="181.7622">User clicks link</text><path d="M164,199.8281 L164,269.8281 L314,269.8281 L314,209.8281 L304,199.8281 L164,199.8281 " fill="#FEFFDD" style="stroke:#181818;stroke-width:0.5;"/><path d="M304,199.8281 L304,209.8281 L314,209.8281 L304,199.8281 " fill="#FEFFDD" style="stroke:#181818;stroke-width:0.5;"/><text fill="#000000" font-family="sans-serif" font-size="13" lengthAdjust="spacing" textLength="129.2573" x="170" y="216.895">Since the app is not</text><text fill="#000000" font-family="sans-serif" font-size="13" lengthAdjust="spacing" textLength="124.7378" x="170" y="232.0278">installed iOS opens</text><text fill="#000000" font-family="sans-serif" font-size="13" lengthAdjust="spacing" textLength="101.8608" x="170" y="247.1606">safari to handle</text><text fill="#000000" font-family="sans-serif" font-size="13" lengthAdjust="spacing" textLength="75.1689" x="170" y="262.2935">the request</text><polygon fill="#181818" points="267.8857,292.4922,277.8857,296.4922,267.8857,300.4922,271.8857,296.4922" style="stroke:#181818;stroke-width:1.0;"/><line style="stroke:#181818;stroke-width:1.0;" x1="159.6616" x2="273.8857" y1="296.4922" y2="296.4922"/><text fill="#000000" font-family="sans-serif" font-size="13" lengthAdjust="spacing" textLength="96.2241" x="166.6616" y="291.4263">Save deep-link</text><path d="M164,309.4922 L164,394.4922 L413,394.4922 L413,319.4922 L403,309.4922 L164,309.4922 " fill="#FEFFDD" style="stroke:#181818;stroke-width:0.5;"/><path d="M403,309.4922 L403,319.4922 L413,319.4922 L403,309.4922 " fill="#FEFFDD" style="stroke:#181818;stroke-width:0.5;"/><text fill="#000000" font-family="sans-serif" font-size="13" lengthAdjust="spacing" textLength="181.4351" x="170" y="326.5591">We store into the database:</text><text fill="#000000" font-family="sans-serif" font-size="13" lengthAdjust="spacing" textLength="78.2095" x="170" y="341.6919">- deep-link (</text><text fill="#000000" font-family="sans-serif" font-size="13" font-weight="bold" lengthAdjust="spacing" textLength="15.1455" x="248.2095" y="341.6919">to</text><text fill="#000000" font-family="sans-serif" font-size="13" lengthAdjust="spacing" textLength="5.0718" x="263.355" y="341.6919">)</text><text fill="#000000" font-family="sans-serif" font-size="13" lengthAdjust="spacing" textLength="108.2974" x="170" y="356.8247">- member hash (</text><text fill="#000000" font-family="sans-serif" font-size="13" font-weight="bold" lengthAdjust="spacing" textLength="22.8008" x="278.2974" y="356.8247">mh</text><text fill="#000000" font-family="sans-serif" font-size="13" lengthAdjust="spacing" textLength="5.0718" x="301.0981" y="356.8247">)</text><text fill="#000000" font-family="sans-serif" font-size="13" lengthAdjust="spacing" textLength="228.1602" x="170" y="371.9575">that was encoded in the marketing</text><text fill="#000000" font-family="sans-serif" font-size="13" lengthAdjust="spacing" textLength="196.5996" x="170" y="387.0903">email for post-install retrieval.</text><polygon fill="#181818" points="385.6538,417.2891,395.6538,421.2891,385.6538,425.2891,389.6538,421.2891" style="stroke:#181818;stroke-width:1.0;"/><line style="stroke:#181818;stroke-width:1.0;" x1="159.6616" x2="391.6538" y1="421.2891" y2="421.2891"/><text fill="#000000" font-family="sans-serif" font-size="13" lengthAdjust="spacing" textLength="213.9922" x="166.6616" y="416.2231">Go to app store to download APP</text><polygon fill="#181818" points="49.9551,446.4219,39.9551,450.4219,49.9551,454.4219,45.9551,450.4219" style="stroke:#181818;stroke-width:1.0;"/><line style="stroke:#181818;stroke-width:1.0;" x1="43.9551" x2="396.6538" y1="450.4219" y2="450.4219"/><text fill="#000000" font-family="sans-serif" font-size="13" lengthAdjust="spacing" textLength="123.1572" x="55.9551" y="445.356">App is downloaded</text><path d="M10,472.4219 L74.4429,472.4219 L74.4429,479.5547 L64.4429,489.5547 L10,489.5547 L10,472.4219 " fill="#EEEEEE" style="stroke:#000000;stroke-width:1.5;"/><rect fill="none" height="232.0625" style="stroke:#000000;stroke-width:1.5;" width="742.0703" x="10" y="472.4219"/><text fill="#000000" font-family="sans-serif" font-size="13" font-weight="bold" lengthAdjust="spacing" textLength="19.4429" x="25" y="485.4888">alt</text><text fill="#000000" font-family="sans-serif" font-size="11" font-weight="bold" lengthAdjust="spacing" textLength="103.6621" x="89.4429" y="484.6323">[fetch deep-link]</text><polygon fill="#181818" points="485.375,506.6875,495.375,510.6875,485.375,514.6875,489.375,510.6875" style="stroke:#181818;stroke-width:1.0;"/><line style="stroke:#181818;stroke-width:1.0;" x1="38.9551" x2="491.375" y1="510.6875" y2="510.6875"/><text fill="#000000" font-family="sans-serif" font-size="13" lengthAdjust="spacing" textLength="205.626" x="45.9551" y="505.6216">User launches app for first time</text><polygon fill="#181818" points="290.8857,535.8203,280.8857,539.8203,290.8857,543.8203,286.8857,539.8203" style="stroke:#181818;stroke-width:1.0;"/><line style="stroke:#181818;stroke-width:1.0;" x1="284.8857" x2="496.375" y1="539.8203" y2="539.8203"/><text fill="#000000" font-family="sans-serif" font-size="13" lengthAdjust="spacing" textLength="173.272" x="296.8857" y="534.7544">App queries for deep-link (</text><text fill="#000000" font-family="sans-serif" font-size="13" font-weight="bold" lengthAdjust="spacing" textLength="15.1455" x="470.1577" y="534.7544">to</text><text fill="#000000" font-family="sans-serif" font-size="13" lengthAdjust="spacing" textLength="5.0718" x="485.3032" y="534.7544">)</text><path d="M284,552.8203 L284,592.8203 L530,592.8203 L530,562.8203 L520,552.8203 L284,552.8203 " fill="#FEFFDD" style="stroke:#181818;stroke-width:0.5;"/><path d="M520,552.8203 L520,562.8203 L530,562.8203 L520,552.8203 " fill="#FEFFDD" style="stroke:#181818;stroke-width:0.5;"/><text fill="#000000" font-family="sans-serif" font-size="13" lengthAdjust="spacing" textLength="225.3481" x="290" y="569.8872">App queries the API on first launch</text><text fill="#000000" font-family="sans-serif" font-size="13" lengthAdjust="spacing" textLength="35.1152" x="290" y="585.02">using</text><text fill="#000000" font-family="sans-serif" font-size="13" font-weight="bold" lengthAdjust="spacing" textLength="22.8008" x="329.2476" y="585.02">mh</text><text fill="#000000" font-family="sans-serif" font-size="13" lengthAdjust="spacing" textLength="91.3936" x="356.1807" y="585.02">for deep-link (</text><text fill="#000000" font-family="sans-serif" font-size="13" font-weight="bold" lengthAdjust="spacing" textLength="15.1455" x="447.5742" y="585.02">to</text><text fill="#000000" font-family="sans-serif" font-size="13" lengthAdjust="spacing" textLength="5.0718" x="462.7197" y="585.02">)</text><polygon fill="#181818" points="485.375,615.2188,495.375,619.2188,485.375,623.2188,489.375,619.2188" style="stroke:#181818;stroke-width:1.0;"/><line style="stroke:#181818;stroke-width:1.0;" x1="279.8857" x2="491.375" y1="619.2188" y2="619.2188"/><text fill="#000000" font-family="sans-serif" font-size="13" lengthAdjust="spacing" textLength="117.4697" x="286.8857" y="614.1528">Return deep-link (</text><text fill="#000000" font-family="sans-serif" font-size="13" font-weight="bold" lengthAdjust="spacing" textLength="15.1455" x="404.3555" y="614.1528">to</text><text fill="#000000" font-family="sans-serif" font-size="13" lengthAdjust="spacing" textLength="5.0718" x="419.501" y="614.1528">)</text><line style="stroke:#181818;stroke-width:1.0;" x1="497.375" x2="539.375" y1="633.2188" y2="633.2188"/><line style="stroke:#181818;stroke-width:1.0;" x1="539.375" x2="539.375" y1="633.2188" y2="646.2188"/><line style="stroke:#181818;stroke-width:1.0;" x1="498.375" x2="539.375" y1="646.2188" y2="646.2188"/><polygon fill="#181818" points="508.375,642.2188,498.375,646.2188,508.375,650.2188,504.375,646.2188" style="stroke:#181818;stroke-width:1.0;"/><path d="M502,659.2188 L502,699.2188 L742,699.2188 L742,669.2188 L732,659.2188 L502,659.2188 " fill="#FEFFDD" style="stroke:#181818;stroke-width:0.5;"/><path d="M732,659.2188 L732,669.2188 L742,669.2188 L732,659.2188 " fill="#FEFFDD" style="stroke:#181818;stroke-width:0.5;"/><text fill="#000000" font-family="sans-serif" font-size="13" lengthAdjust="spacing" textLength="118.2505" x="508" y="676.2856">If deep-link found,</text><text fill="#000000" font-family="sans-serif" font-size="13" lengthAdjust="spacing" textLength="219.0703" x="508" y="691.4185">corresponding screen is rendered</text><!--SRC=[TLFDRjim3BxhAOYUjc3f0_Gm8BiCFHGh6XGxin8T2v4bJQIRrnyPnPtRfRaa9iZlrq4lfS7byypKNCKcqSUAMG1-j7BwRxXxl7y_kDdL2di5efiFcxKwXqdWG0A1g6vJp4UNYn2qU1W5oj1P7sXweMPx389Dlocu2TkH9EO3q8GnmIdAk8AX7C2Wd3C8s7vVvCBT6HHyYlx8S8LpyRMFsHF8I81g8RBXkPXPC2KA47_jeLJAx1W7R16am8Wv979sq-ZFJ2mh8Oi0rQ8fgOuzljAdpXSLlmdOqeEObS2G0mg-8DETs_wxXY-RZPJDvgiEfvxNY3pQU1fjB2CAd921iY_1zESpsbkEhkSuQEMri6mlJjM8j4Ylc6wlUraLh9v-5il10kkgzI6KKqu5Wxf-T6wzhjVFlP9TJtXPrNwLo_NtOo3nwsgNGlNcqcN2EVkH-Cnh1eROM43YHCwGU-ATHLjHEtnUkvBU-nBiRLuVMM3MNSaNYixiPhONiKVz6V9RU0Qmo7yYcLk-jhxerd_91qqwkHzM9qEPS_W6pfVMY6l9mSImRqJPGctAJAr7sXNeZxy0]--></g></svg>